<svg width="60" height="60" viewBox="0 0 60 60" fill="none" xmlns="http://www.w3.org/2000/svg">
<path d="M30 30C33.866 30 37 26.866 37 23C37 19.134 33.866 16 30 16C26.134 16 23 19.134 23 23C23 26.866 26.134 30 30 30Z" fill="black"/>
<path d="M9 45C7.896 45 7 45.896 7 47C7 48.104 7.896 49 9 49H11V53H20V45H9Z" fill="black"/>
<path d="M7 21C4.791 21 3 22.791 3 25V29H11V25C11 22.791 9.209 21 7 21Z" fill="black"/>
<path d="M7 19C8.65685 19 10 17.6569 10 16C10 14.3431 8.65685 13 7 13C5.34315 13 4 14.3431 4 16C4 17.6569 5.34315 19 7 19Z" fill="black"/>
<path d="M17 21C14.791 21 13 22.791 13 25V29H21V25C21 22.791 19.209 21 17 21Z" fill="black"/>
<path d="M17 19C18.6569 19 20 17.6569 20 16C20 14.3431 18.6569 13 17 13C15.3431 13 14 14.3431 14 16C14 17.6569 15.3431 19 17 19Z" fill="black"/>
<path d="M12 13C13.6569 13 15 11.6569 15 10C15 8.34315 13.6569 7 12 7C10.3431 7 9 8.34315 9 10C9 11.6569 10.3431 13 12 13Z" fill="black"/>
<path d="M22 13C23.6569 13 25 11.6569 25 10C25 8.34315 23.6569 7 22 7C20.3431 7 19 8.34315 19 10C19 11.6569 20.3431 13 22 13Z" fill="black"/>
<path d="M54 32C53.566 32 53.156 32.096 52.785 32.262L45.076 35.683L39.728 32.899C38.593 32.309 37.332 32 36.051 32H23.949C22.669 32 21.407 32.309 20.272 32.899L14.924 35.683L7.216 32.262C6.843 32.096 6.434 32 6 32C4.346 32 3 33.302 3 35C3 36.224 3.734 37.271 4.785 37.738L13.793 41.742C14.163 41.906 14.569 42 15 42C15.473 42 15.915 41.881 16.313 41.686L22 38.851V53H38V38.851L43.688 41.685C44.085 41.881 44.527 42 45 42C45.431 42 45.838 41.906 46.207 41.743L55.215 37.739C56.266 37.271 57 36.224 57 35C57 33.26 55.605 32 54 32Z" fill="black"/>
<path d="M51 45C52.104 45 53 45.896 53 47C53 48.104 52.104 49 51 49H49V53H40V45H51Z" fill="black"/>
<path d="M53 21C55.209 21 57 22.791 57 25V29H49V25C49 22.791 50.791 21 53 21Z" fill="black"/>
<path d="M53 19C54.6569 19 56 17.6569 56 16C56 14.3431 54.6569 13 53 13C51.3431 13 50 14.3431 50 16C50 17.6569 51.3431 19 53 19Z" fill="black"/>
<path d="M43 21C45.209 21 47 22.791 47 25V29H39V25C39 22.791 40.791 21 43 21Z" fill="black"/>
<path d="M43 19C44.6569 19 46 17.6569 46 16C46 14.3431 44.6569 13 43 13C41.3431 13 40 14.3431 40 16C40 17.6569 41.3431 19 43 19Z" fill="black"/>
<path d="M48 13C49.6569 13 51 11.6569 51 10C51 8.34315 49.6569 7 48 7C46.3431 7 45 8.34315 45 10C45 11.6569 46.3431 13 48 13Z" fill="black"/>
<path d="M38 13C39.6569 13 41 11.6569 41 10C41 8.34315 39.6569 7 38 7C36.3431 7 35 8.34315 35 10C35 11.6569 36.3431 13 38 13Z" fill="black"/>
</svg>
